<?xml version="1.0" encoding="UTF-8" standalone="no"?>
<svg
   xmlns:dc="http://purl.org/dc/elements/1.1/"
   xmlns:cc="http://creativecommons.org/ns#"
   xmlns:rdf="http://www.w3.org/1999/02/22-rdf-syntax-ns#"
   xmlns:svg="http://www.w3.org/2000/svg"
   xmlns="http://www.w3.org/2000/svg"
   xmlns:xlink="http://www.w3.org/1999/xlink"
   xmlns:sodipodi="http://sodipodi.sourceforge.net/DTD/sodipodi-0.dtd"
   xmlns:inkscape="http://www.inkscape.org/namespaces/inkscape"
   version="1.1"
   x="0"
   y="0"
   width="500"
   height="500"
   viewBox="0, 0, 500, 500"
   id="svg3849"
   sodipodi:docname="antifa-or-gtfo.svg"
   inkscape:version="0.92.4 (5da689c313, 2019-01-14)"
   inkscape:export-filename="/home/downloads/antifa-or-gtfo.png"
   inkscape:export-xdpi="96"
   inkscape:export-ydpi="96">
  <metadata
     id="metadata3855">
    <rdf:RDF>
      <cc:Work
         rdf:about="">
        <dc:format>image/svg+xml</dc:format>
        <dc:type
           rdf:resource="http://purl.org/dc/dcmitype/StillImage" />
        <dc:title />
      </cc:Work>
    </rdf:RDF>
  </metadata>
  <defs
     id="defs3853" />
  <sodipodi:namedview
     pagecolor="#ffffff"
     bordercolor="#666666"
     borderopacity="1"
     objecttolerance="10"
     gridtolerance="10"
     guidetolerance="10"
     inkscape:pageopacity="0"
     inkscape:pageshadow="2"
     inkscape:window-width="1360"
     inkscape:window-height="716"
     id="namedview3851"
     showgrid="false"
     inkscape:zoom="0.77074639"
     inkscape:cx="183.82267"
     inkscape:cy="192.38218"
     inkscape:window-x="0"
     inkscape:window-y="24"
     inkscape:window-maximized="0"
     inkscape:current-layer="svg3849" />
  <g
     id="g4758">
    <g
       id="Background" />
    <g
       id="Flaggen">
      <path
         d="m 327.458,421.123 91.52,-253.28 -7.408,-4.358 c -22.228,-20.048 -31.818,-32.688 -55.354,-41.841 -36.203,-14.081 -66.248,13.51 -97.194,21.793 -47.549,12.724 -91.317,9.397 -131.415,-17.189 -4.308,-2.857 -5.789,-5.663 -9.153,-9.59 -28.33,31.384 -50.217,71.78 -54.441,118.481 -0.123,1.364 0.213,2.134 0.436,3.485 9.589,7.845 78.644,72.665 174.967,38.233 38.956,-13.925 64.941,1.742 98.503,22.664 5.46,3.405 5.126,3.35 8.28,5.665 l -41.406,125.525 10.897,-3.05 11.768,-6.538"
         id="path22"
         inkscape:connector-curvature="0"
         style="fill:#231f20" />
      <path
         d="m 297.385,286.88 -54.612,150.849 c -2.697,0.111 -4.23,0.13 -6.917,-0.116 -4.791,-0.439 -7.514,-1.035 -12.058,-2.615 l 27.822,-82.304 -4.359,-3.051 c -16.126,-6.101 -23.409,-11.296 -44.892,-7.409 -45.764,8.281 -105.601,-13.106 -127.981,-59.9 -4.794,-10.025 -7.458,-14.63 -9.068,-24.801 -0.661,-4.189 -0.875,-6.599 -0.871,-10.84 44.012,36.438 88.517,54.882 149.252,44.547 28.538,-4.856 46.732,-19.781 73.658,-9.153 4.032,1.593 6.268,2.634 10.026,4.793"
         id="path24"
         inkscape:connector-curvature="0"
         style="fill:#ed1c24" />
      <path
         d="m 357.069,288.144 c -6.068,-1.627 -10.506,-6.106 -13.705,-13.835 -2.384,-5.759 -3.322,-10.395 -4.404,-21.757 -0.966,-10.147 -1.31,-12.126 -3.077,-17.727 l -1.537,-4.869 -1.142,-1.043 c -0.628,-0.575 -1.206,-1.014 -1.284,-0.976 -0.244,0.115 -2.067,4.831 -3.081,7.969 -2.209,6.844 -2.678,13.006 -1.382,18.142 l 0.502,1.987 -1.223,0.727 c -2.463,1.464 -2.534,1.468 -3.395,0.181 -1.151,-1.719 -2.541,-6.525 -2.558,-8.843 -0.024,-3.144 0.743,-7.821 2.204,-13.449 1.622,-6.247 2.438,-11.022 2.368,-13.854 -0.056,-2.319 0.006,-2.394 3.074,-3.701 l 2.129,-0.906 1.465,1.719 c 3.487,4.092 5.317,7.184 7.396,12.5 2.376,6.072 3.619,11.794 5.67,26.092 1.779,12.392 1.715,12.117 3.621,15.505 3.292,5.851 6.108,8.928 10.147,11.085 0.973,0.521 1.028,0.608 1.379,2.204 0.202,0.913 0.357,1.949 0.346,2.301 -0.03,1.009 -1.143,1.182 -3.513,0.548 z m -31.189,-17.204 -1.136,0.282 -0.212,-1.056 c -0.326,-1.621 0.226,-3.252 1.55,-4.58 1.027,-1.029 1.568,-1.322 5.059,-2.745 2.15,-0.876 4.332,-1.744 4.85,-1.928 l 0.942,-0.335 0.822,2.389 c 0.972,2.824 1.56,2.184 -4.728,5.148 -4.422,2.085 -4.863,2.259 -7.147,2.825 z m 21.636,-11.059 c -0.494,-0.758 -0.796,-2.501 -0.629,-3.638 0.199,-1.361 1.294,-3.67 2.838,-5.99 1.591,-2.392 2.804,-4.96 3.013,-6.386 0.45,-3.068 -1.604,-11.998 -3.743,-16.271 -2.914,-5.82 -8.409,-11.524 -14.075,-14.61 -0.955,-0.52 -1.773,-1.056 -1.82,-1.193 -0.047,-0.136 0.738,-1.784 1.745,-3.662 1.291,-2.406 1.905,-3.314 2.082,-3.076 0.694,0.934 7.6,7.331 9.005,8.341 3.038,2.185 6.46,3.31 9.36,3.077 0.676,-0.053 1.714,-0.081 2.305,-0.06 1.558,0.055 3.42,-0.673 6.343,-2.48 4.375,-2.705 5.991,-2.92 7.851,-1.049 1.542,1.552 1.475,1.942 -0.613,3.548 -3.662,2.814 -9.097,4.753 -15.005,5.352 -1.821,0.184 -2.456,0.339 -2.6,0.635 -0.217,0.444 0.513,2.622 2.037,6.079 0.855,1.94 1.097,2.828 1.46,5.367 1.106,7.716 0.217,13.949 -2.799,19.643 -1.19,2.246 -1.679,2.899 -2.717,3.628 -0.697,0.489 -1.804,1.439 -2.461,2.111 l -1.194,1.222 z m -29.581,-39.549 c -0.418,0.017 -1.245,-0.079 -1.835,-0.212 -0.881,-0.199 -1.126,-0.394 -1.364,-1.083 l -0.29,-0.842 1.644,-0.753 c 4.106,-1.878 7.054,-4.463 9.502,-8.33 2.612,-4.126 4.303,-9.358 6.395,-19.789 0.673,-3.357 1.183,-5.226 1.453,-5.325 0.505,-0.185 2.119,0.741 2.615,1.503 0.8,1.227 1.091,8.363 0.518,12.704 -1.105,8.385 -5.42,15.318 -12.235,19.658 -1.896,1.207 -5.027,2.416 -6.403,2.469 z m -126.768,39.706 -40.865,13.927 -1.022,-0.302 c -1.286,-0.381 -3.964,-3.04 -5.624,-5.584 -2.864,-4.389 -5.377,-9.407 -8.243,-16.468 -1.077,-2.653 -3.443,-8.37 -5.258,-12.705 -3.604,-8.607 -5.461,-14.132 -7.597,-22.61 -3.225,-12.796 -3.872,-20.913 -1.875,-23.491 0.549,-0.709 7.832,-3.723 31.615,-13.084 22.371,-8.804 47.186,-16.443 61.733,-19.003 3.281,-0.576 4.003,-0.336 6.538,2.178 2.564,2.541 4.627,5.721 6.2,9.557 1.711,4.175 1.958,5.218 1.335,5.638 -0.797,0.538 -3.627,1.443 -4.215,1.349 -0.85,-0.137 -1.927,-1.592 -3.452,-4.662 -3.236,-6.515 -4.993,-7.703 -10.567,-7.146 -6.226,0.622 -15.157,3.129 -32.574,9.144 -16.928,5.846 -29.827,10.87 -42.542,16.57 -3.142,1.409 -4.009,1.903 -4.839,2.759 -2.153,2.219 -3.038,5.976 -2.612,11.089 0.326,3.918 0.956,6.347 4.667,18.005 5.336,16.761 8.741,24.596 14.08,32.39 3.226,4.711 5.026,6.067 8.641,6.511 4.021,0.493 2.652,0.898 36.808,-10.875 29.604,-10.203 39.316,-13.755 42.943,-15.703 3.376,-1.814 4.148,-6.227 2.565,-14.65 -0.739,-3.929 -0.751,-4.178 -0.246,-5.079 1.024,-1.832 3.017,-2.34 4.361,-1.113 1.208,1.102 2.565,5.543 3.177,10.404 0.788,6.266 1.029,10.609 0.643,11.609 -0.752,1.953 -4.196,4.15 -9.789,6.247 -1.716,0.643 -21.51,7.437 -43.986,15.098 z m 113.48,-43.702 c -1.782,0.16 -2.953,-0.032 -4.525,-0.743 l -1.281,-0.579 0.425,-0.681 c 0.659,-1.053 2.46,-2.228 5.903,-3.847 1.735,-0.815 3.607,-1.824 4.16,-2.241 6.088,-4.586 9.419,-8.797 12.989,-16.423 1.748,-3.731 4.946,-12.574 4.988,-13.793 0.009,-0.247 0.419,-0.529 1.126,-0.772 1.299,-0.447 1.246,-0.596 1.307,3.628 0.139,9.538 -3.22,18.628 -9.788,26.482 -1.476,1.767 -1.792,1.996 -7.077,5.144 -5.947,3.542 -6.162,3.641 -8.227,3.825 z m -123.573,36.609 c 0.025,-0.716 4.852,-16.734 6.027,-20.002 2.421,-6.728 6.373,-15.345 8.154,-17.775 1.325,-1.809 4.061,-3.863 6.957,-5.223 3.45,-1.62 32.907,-11.747 55.853,-19.202 19.467,-6.324 18.921,-6.186 25.044,-6.338 1.897,-0.048 3.479,-0.151 3.518,-0.229 0.039,-0.079 -0.379,-0.442 -0.928,-0.808 -1.29,-0.859 -3.712,-1.475 -6.043,-1.539 -3.895,-0.104 -5.091,0.219 -24.887,6.709 -17.849,5.853 -25.904,8.415 -47.376,15.073 l -10.06,3.119 -1.731,-0.228 c -3.049,-0.402 -5.917,-1.974 -20.607,-11.298 -7.801,-4.95 -14.204,-9.062 -14.23,-9.137 -0.087,-0.253 5.74,-1.743 6.197,-1.584 0.25,0.087 4.088,2.629 8.526,5.648 9.56,6.502 12.33,8.199 16.316,9.997 3.947,1.78 5.232,2.11 7.229,1.861 3.847,-0.48 13.663,-3.663 35.374,-11.469 25.168,-9.05 33.707,-11.786 37.992,-12.175 3.421,-0.309 7.758,-0.298 10.578,0.028 1.191,0.138 2.194,0.192 2.228,0.119 0.155,-0.316 -1.316,-1.382 -2.857,-2.07 -4.832,-2.161 -11.011,-2.417 -18.056,-0.747 -2.823,0.668 -18.527,5.935 -28.679,9.619 -3.17,1.149 -9.506,3.377 -14.08,4.948 -7.471,2.567 -8.653,2.909 -11.614,3.367 -3.923,0.607 -8.509,0.704 -11.387,0.24 -1.726,-0.279 -2.248,-0.497 -3.03,-1.271 -2.249,-2.224 -4.901,-9.474 -5.743,-15.699 l -0.191,-1.414 1.997,-0.688 c 1.1,-0.378 2.026,-0.666 2.06,-0.639 0.034,0.028 1.09,2.802 2.347,6.169 2.501,6.697 2.729,7.088 4.851,8.299 1.547,0.883 2.357,0.961 4.822,0.466 5.219,-1.046 9.079,-2.253 27.253,-8.515 11.215,-3.865 20.518,-6.948 22.389,-7.42 8.778,-2.216 16.191,-2.863 23.13,-2.018 3.365,0.41 3.766,0.533 6.572,2.008 5.281,2.775 10.915,6.973 14.674,10.936 l 1.713,1.805 -0.619,-1.504 c -1.383,-3.354 -9.301,-9.966 -20.63,-17.227 -2.111,-1.353 -3.868,-2.549 -3.906,-2.656 -0.124,-0.362 0.778,-1.364 1.432,-1.589 1.151,-0.397 4.808,0.585 6.739,1.808 9.847,6.24 16.562,11.773 20.592,16.967 0.902,1.161 2.004,2.301 2.45,2.532 l 0.808,0.421 0.5,-1.025 0.5,-1.025 -1.429,-2.031 c -3.191,-4.538 -5.852,-7.106 -15.358,-14.827 -7.252,-5.891 -7.31,-5.964 -5.269,-6.666 0.882,-0.305 1.501,-0.258 3.363,0.249 1.254,0.341 2.51,0.701 2.789,0.8 0.821,0.29 8.815,7.11 11.787,10.057 1.503,1.489 3.592,3.885 4.644,5.324 2.787,3.815 2.793,3.818 3.794,2.065 0.639,-1.121 0.64,-1.171 0.022,-2.488 -1.441,-3.075 -5.249,-8.173 -9.031,-12.094 -1.056,-1.093 -1.971,-2.139 -2.035,-2.324 -0.064,-0.186 0.086,-0.819 0.332,-1.406 0.433,-1.028 0.48,-1.062 1.296,-0.943 1.38,0.202 4.146,1.706 5.557,3.023 0.724,0.675 2.717,3.186 4.429,5.581 1.712,2.395 3.203,4.322 3.314,4.285 0.112,-0.039 0.414,-0.67 0.675,-1.403 1.2,-3.383 1.839,-4.016 3.285,-3.255 0.934,0.493 1.275,1.44 1.275,3.559 10e-4,2.19 0.213,2.723 1.122,2.811 0.408,0.039 0.906,0.014 1.108,-0.056 0.495,-0.169 0.686,0.497 0.686,2.399 0.002,5.626 -2.202,11.349 -6.703,17.41 -4.276,5.757 -10.71,10.651 -17.497,13.306 -3.366,1.318 -5.489,1.606 -7.585,1.028 -1.611,-0.443 -1.927,-1.21 -1.004,-2.433 1.008,-1.338 2.601,-2.348 6.124,-3.886 10.938,-4.777 18.044,-11.796 21.652,-21.391 0.567,-1.505 0.569,-1.571 0.028,-0.871 -5.94,7.677 -13.036,14.233 -18.984,17.539 -1.784,0.991 -3.171,1.547 -6.066,2.434 -3.979,1.217 -6.488,1.553 -9.618,1.287 -1.731,-0.147 -2.04,-0.425 -2.563,-2.299 l -0.303,-1.089 -20.706,6.988 c -11.389,3.843 -23.366,7.904 -26.617,9.024 -7.519,2.59 -14.664,5.591 -20.571,8.641 -2.789,1.439 -3.172,1.999 -3.297,4.822 -0.085,1.903 0.903,5.192 2.92,9.726 1.256,2.824 1.536,4.644 0.861,5.575 -0.246,0.339 -1.003,0.756 -1.986,1.094 -1.887,0.651 -1.886,0.651 -3.482,-2.62 -2.336,-4.792 -3.83,-10.361 -3.872,-14.435 -0.016,-1.634 0.095,-1.989 1.035,-3.312 1.982,-2.791 5.945,-5.563 11.873,-8.309 1.453,-0.672 7.703,-2.948 14.526,-5.29 6.586,-2.26 18.357,-6.39 26.156,-9.177 9.08,-3.244 16.746,-5.836 21.311,-7.205 3.922,-1.177 7.163,-2.205 7.203,-2.285 0.163,-0.337 -3.269,-0.738 -5.195,-0.607 -3.792,0.259 -5.416,0.707 -20.739,5.721 -8.359,2.736 -21.934,7.145 -30.168,9.798 -22.742,7.328 -24.8,8.044 -26.552,9.243 -3.097,2.117 -5.592,4.586 -7.464,7.385 -1.89,2.826 -3.701,7.158 -7.688,18.392 l -4.302,12.122 -2.632,0.906 c -2.223,0.765 -2.631,0.841 -2.619,0.483 z"
         id="Logo_CCC"
         inkscape:connector-curvature="0"
         style="fill:#ffffff" />
    </g>
    <path
       d="M 249.997,500 C 112.264,500 0,387.737 0,250.003 0,112.269 112.264,0 249.997,0 387.731,0 500,112.269 500,250.003 500,387.737 387.731,500 249.997,500 Z m 0,-56.832 c 107.021,0 193.171,-86.144 193.171,-193.165 0,-107.021 -86.15,-193.171 -193.171,-193.171 -107.019,0 -193.165,86.15 -193.165,193.171 0,107.021 86.146,193.165 193.165,193.165 z"
       id="path20"
       inkscape:connector-curvature="0"
       style="display:inline;fill:#231f20" />
    <g
       style="stroke:none"
       transform="matrix(0.93847716,0,0,0.93847716,15.38071,14.517215)"
       id="g4718">
      <path
         d="M 161.3375,54.957865 C 269.05648,5.9908332 396.07509,53.618521 445.04214,161.3375 494.00916,269.05648 446.38149,396.07509 338.6625,445.04215 230.94352,494.00916 103.92489,446.38148 54.957863,338.6625 5.9908322,230.94352 53.618518,103.92489 161.3375,54.957865 Z"
         id="path3806"
         inkscape:connector-curvature="0"
         style="fill-opacity:0;stroke:none;stroke-width:0.95646709" />
      <text
         id="text3867"
         style="font-style:normal;font-weight:normal;font-size:40px;line-height:1.25;font-family:sans-serif;letter-spacing:0px;word-spacing:0px;fill:#000000;fill-opacity:1;stroke:none"
         xml:space="preserve"><textPath
           xlink:href="#path3806"
           id="textPath3886"
           style="font-style:normal;font-variant:normal;font-weight:500;font-stretch:normal;font-size:53.98817062px;font-family:Roboto;-inkscape-font-specification:'Roboto Medium';fill:#ffffff;stroke:none">ANTIFA</textPath></text>
    </g>
    <g
       transform="rotate(5.15698,250,250)"
       id="g4723">
      <g
         id="g4741">
        <text
           transform="translate(-2.9217385e-6,-1.2634658e-5)"
           xml:space="preserve"
           style="font-style:normal;font-weight:normal;font-size:40px;line-height:1.25;font-family:sans-serif;letter-spacing:0px;word-spacing:0px;fill:#000000;fill-opacity:1;stroke:none"
           id="text3871"><textPath
             style="font-style:normal;font-variant:normal;font-weight:500;font-stretch:normal;font-size:50.66666794px;font-family:Roboto;-inkscape-font-specification:'Roboto Medium';letter-spacing:5px;fill:#ffffff"
             id="textPath3894"
             xlink:href="#path3892">OR GTFO</textPath></text>
        <path
           d="M 163.85071,473.61661 C 287.35097,521.19563 426.03757,459.64954 473.61661,336.14929 521.19563,212.64903 459.64954,73.962415 336.14929,26.383388 212.64903,-21.195629 73.962404,40.350455 26.383388,163.85071 -21.195629,287.35097 40.350455,426.03758 163.85071,473.61661 Z"
           id="path3892"
           inkscape:connector-curvature="0"
           style="fill:none;fill-opacity:0;stroke:none;stroke-width:1.06980979;stroke-opacity:1" />
      </g>
    </g>
  </g>
</svg>
